# xmcd
#
# Track frame offsets:
#	150
#	13568
#	30770
#	46023
#	61956
#	84269
#	96914
#	114078
#	128852
#	147834
#
# Disc length: 2220 seconds
#
# Revision: 0
# Processed by: cddbd v1.4PL0 Copyright (c) Steve Scherf et al.
# Submitted via: dBpowerAMP V4.0
#
DISCID=6b08aa0a
DTITLE=Wes James  - You Can't Take It With You
DYEAR=1998
DGENRE=Christian Country
TTITLE0=Wes James - Heartfelt, Soul Driven
TTITLE1=Wes James - Everything Will Be Ok
TTITLE2=Wes James - Don't Blame It On Me
TTITLE3=Wes James - Hardtimes
TTITLE4=Wes James - Dusty And Dry 
TTITLE5=Wes James - Sittin' In The Middle
TTITLE6=Wes James - Good Things
TTITLE7=Wes James - Where Is Gods Love
TTITLE8=Wes James - Mercy Said The Son
TTITLE9=Wes James - You Can't Take It With You
EXTD=You Can Call Wes James Or Write P.O.BOX 34 Millersview,TX 76862 Number Is 1 (915) 483-5453
EXTT0=
EXTT1=
EXTT2=
EXTT3=
EXTT4=
EXTT5=
EXTT6=
EXTT7=
EXTT8=
EXTT9=
PLAYORDER=
